<svg width="8" height="15" viewBox="0 0 8 15" fill="none" xmlns="http://www.w3.org/2000/svg">
<g id="normal_vector_u52 1" clip-path="url(#clip0_11_861)">
<g id="Group">
<path id="Vector" d="M0 14.2061C0 14.6548 0.319018 15 0.744376 15C0.957055 15 1.13701 14.9138 1.27607 14.7671L7.76278 8.07828C7.9182 7.91429 8 7.7158 8 7.50003C8 7.27563 7.9182 7.06849 7.76278 6.92177L1.28425 0.241659C1.13701 0.086307 0.957055 0 0.744376 0C0.319018 0 0 0.345227 0 0.794023C0 1.00115 0.0817996 1.2083 0.21268 1.35502L6.16768 7.50003L0.21268 13.6451C0.0817996 13.7918 0 13.9903 0 14.2061Z" fill="#838383"/>
</g>
</g>
<defs>
<clipPath id="clip0_11_861">
<rect width="8" height="15" fill="white"/>
</clipPath>
</defs>
</svg>
