<svg width="13" height="14" viewBox="0 0 13 14" fill="none" xmlns="http://www.w3.org/2000/svg">
<g id="normal_vector_u44 1" clip-path="url(#clip0_8_1050)">
<g id="Group">
<path id="Vector" d="M5.10397 13.4992C4.88251 13.4992 4.67969 13.4525 4.49549 13.359C4.31129 13.2655 4.13287 13.1134 3.96022 12.9025L0.319588 8.42324C0.106529 8.14747 0 7.86339 0 7.57101C0 7.24642 0.110728 6.98078 0.332183 6.77409C0.553638 6.56739 0.811828 6.46404 1.10675 6.46404C1.525 6.46404 1.86531 6.63854 2.1277 6.98754L5.04257 10.7003L10.8723 1.1084C11.11 0.702801 11.438 0.5 11.8563 0.5C12.168 0.5 12.4364 0.599453 12.6615 0.798358C12.8866 0.997263 12.9995 1.2468 13 1.54698C13 1.70122 12.9672 1.85131 12.9016 1.99724C12.836 2.14318 12.7704 2.27301 12.7048 2.38674L6.19812 12.8791C6.06693 13.09 5.90714 13.2463 5.71874 13.3481C5.53035 13.4499 5.32542 13.4997 5.10397 13.4992Z" fill="#17A471"/>
</g>
</g>
<defs>
<clipPath id="clip0_8_1050">
<rect width="13" height="13" fill="white" transform="translate(0 0.5)"/>
</clipPath>
</defs>
</svg>
