<svg width="22" height="21" viewBox="0 0 22 21" fill="none" xmlns="http://www.w3.org/2000/svg">
<g id="normal_show_map_u47 1" clip-path="url(#clip0_11_847)">
<g id="Group">
<path id="Vector" d="M1.09628 20.5655L1.09521 20.5666C1.21803 20.5666 1.34638 20.5444 1.48027 20.4999C1.61416 20.4554 1.75929 20.3887 1.91567 20.2998L7.43884 17.2975L13.3637 20.675C13.7375 20.8917 14.1197 21 14.5103 21C14.873 21 15.219 20.9027 15.5482 20.7081L21.1549 17.5057C21.4505 17.3445 21.6653 17.1472 21.7992 16.9138C21.9331 16.6804 22 16.3968 22 16.063V1.57716C22 1.21031 21.9038 0.92815 21.7113 0.730672C21.5189 0.533193 21.2497 0.434453 20.9037 0.434453C20.7809 0.434453 20.6525 0.456692 20.5187 0.501169C20.3848 0.545646 20.2396 0.609516 20.0833 0.692777L14.3764 3.84497L8.56886 0.300488C8.2286 0.100163 7.86603 0 7.48115 0C7.08519 0 6.71691 0.100163 6.3763 0.300488L0.845103 3.49431C0.554833 3.66119 0.341505 3.85991 0.205117 4.09048C0.0687293 4.32105 0.000357036 4.60606 0 4.94551V19.4143C0 19.7811 0.0962211 20.0647 0.288663 20.2651C0.481106 20.4654 0.75031 20.5655 1.09628 20.5655ZM6.8433 15.8538L1.79785 18.6313C1.73073 18.6648 1.67771 18.6815 1.63879 18.6815C1.53275 18.6815 1.47973 18.6176 1.47973 18.4899V5.2967C1.47973 5.16896 1.50615 5.05635 1.559 4.95885C1.61184 4.86136 1.70252 4.7765 1.83106 4.70426L6.46681 1.97746L6.65104 1.87712C6.65104 1.87712 6.71513 1.84367 6.8433 1.77678V15.8538ZM13.2373 18.8149L8.32518 15.9963V1.96091C8.38088 1.98333 8.438 2.01108 8.49656 2.04417C8.55511 2.07726 8.60956 2.10786 8.6599 2.13597L13.6721 5.18835V19.0402C13.605 19.0067 13.534 18.972 13.459 18.9361C13.384 18.9001 13.3101 18.8598 13.2373 18.8149ZM15.1615 19.1987H15V5.10509L20.1989 2.36975C20.2661 2.3363 20.3191 2.31958 20.358 2.31958C20.4083 2.31958 20.4474 2.3363 20.4753 2.36975C20.5031 2.40319 20.5171 2.44767 20.5171 2.50318V15.7044C20.5171 15.8321 20.4906 15.9447 20.4378 16.0422C20.3849 16.1397 20.2971 16.2272 20.1743 16.3048L15.6135 18.9569C15.541 19.0014 15.4657 19.0444 15.3875 19.0861C15.3093 19.1277 15.234 19.1652 15.1615 19.1987Z" fill="black"/>
</g>
</g>
<defs>
<clipPath id="clip0_11_847">
<rect width="22" height="21" fill="white"/>
</clipPath>
</defs>
</svg>
