<svg width="21" height="21" viewBox="0 0 21 21" fill="none" xmlns="http://www.w3.org/2000/svg">
<g id="normal_vector_u73 1" clip-path="url(#clip0_13_1231)">
<g id="Group">
<path id="Vector" d="M18.6778 0.723792L0.921404 8.59865C0.631811 8.73033 0.411026 8.90014 0.259047 9.10808C0.107069 9.31601 0.0220448 9.5377 0.00397417 9.77312C-0.0140964 10.0086 0.0294583 10.232 0.134638 10.4435C0.239819 10.655 0.404539 10.8281 0.6288 10.9629C0.85306 11.0977 1.13547 11.1653 1.47603 11.1657L9.57722 11.197C9.72225 11.197 9.79476 11.2664 9.79476 11.4052L9.81631 19.0951C9.81631 19.4139 9.88511 19.6806 10.0227 19.8952C10.1603 20.1098 10.3413 20.2692 10.5655 20.3734C10.7898 20.4775 11.0268 20.5175 11.2765 20.4931C11.5263 20.4687 11.767 20.3769 11.9987 20.2177C12.2304 20.0586 12.4187 19.8229 12.5637 19.5108L20.774 2.61453C20.9622 2.22658 21.0328 1.87854 20.986 1.5704C20.9392 1.26226 20.8072 1.01464 20.5899 0.82754C20.3725 0.640439 20.0973 0.533145 19.7642 0.505656C19.431 0.478167 19.0689 0.550879 18.6778 0.723792ZM10.6733 9.5643L2.75696 9.60686C2.72082 9.60686 2.69904 9.59134 2.69163 9.56031C2.68421 9.52927 2.70228 9.50666 2.74584 9.49247L18.7967 2.43696C18.8546 2.41612 18.8998 2.4179 18.9322 2.44228C18.9647 2.46667 18.9665 2.50989 18.9378 2.57197L11.5532 17.8887C11.5388 17.9371 11.5117 17.9561 11.4718 17.9459C11.432 17.9357 11.4121 17.9131 11.4121 17.8781L11.4663 10.3131C11.4663 10.0915 11.3938 9.91123 11.2487 9.77246C11.1037 9.63369 10.9119 9.5643 10.6733 9.5643Z" fill="white"/>
</g>
</g>
<defs>
<clipPath id="clip0_13_1231">
<rect width="21" height="20" fill="white" transform="translate(0 0.5)"/>
</clipPath>
</defs>
</svg>
