<svg width="22" height="23" viewBox="0 0 22 23" fill="none" xmlns="http://www.w3.org/2000/svg">
<g id="normal_filter_u51 1" clip-path="url(#clip0_11_841)">
<g id="Group">
<path id="Vector" d="M7.54574 21.9384C8.64077 22.3128 9.79075 22.5 10.9957 22.5C12.2006 22.5 13.3506 22.3128 14.4456 21.9384C15.5406 21.5641 16.547 21.0391 17.4648 20.3635C18.3825 19.6878 19.1806 18.8912 19.8591 17.9734C20.5376 17.0557 21.0641 16.0478 21.4384 14.9499C21.8128 13.852 22 12.7035 22 11.5043C22 10.2994 21.8128 9.14942 21.4384 8.05439C21.0641 6.95936 20.5376 5.95298 19.8591 5.03523C19.1806 4.11748 18.3825 3.31936 17.4648 2.64087C16.547 1.96238 15.5392 1.43594 14.4413 1.06157C13.3434 0.687189 12.192 0.5 10.987 0.5C9.7821 0.5 8.63213 0.687189 7.5371 1.06157C6.44207 1.43594 5.43712 1.96238 4.52226 2.64087C3.60739 3.31936 2.81071 4.11748 2.13222 5.03523C1.45373 5.95298 0.928738 6.95936 0.557243 8.05439C0.185747 9.14942 0 10.2994 0 11.5043C0 12.7035 0.187189 13.852 0.561566 14.9499C0.935944 16.0478 1.46094 17.0557 2.13655 17.9734C2.81216 18.8912 3.60883 19.6878 4.52658 20.3635C5.44433 21.0391 6.45072 21.5641 7.54574 21.9384ZM10.9957 20.9293C9.95398 20.9293 8.96164 20.7703 8.01867 20.4521C7.0757 20.1339 6.2129 19.6877 5.43028 19.1133C4.64765 18.5389 3.9679 17.8592 3.39102 17.074C2.81414 16.2889 2.36788 15.4247 2.05223 14.4813C1.73659 13.538 1.57894 12.5457 1.5793 11.5043C1.5793 10.4572 1.73695 9.46218 2.05223 8.51921C2.36752 7.57624 2.81234 6.712 3.38669 5.92649C3.96105 5.14099 4.63954 4.46123 5.42217 3.88723C6.2048 3.31324 7.06759 2.86842 8.01056 2.55277C8.95354 2.23713 9.94587 2.07948 10.9876 2.07984C12.0347 2.07984 13.0297 2.23749 13.9727 2.55277C14.9157 2.86806 15.7799 3.31288 16.5654 3.88723C17.3509 4.46159 18.0307 5.14135 18.6047 5.92649C19.1787 6.71164 19.6249 7.57588 19.9434 8.51921C20.262 9.46254 20.4211 10.4576 20.4207 11.5043C20.4265 12.546 20.2717 13.5384 19.9564 14.4813C19.6411 15.4243 19.1949 16.2885 18.6176 17.074C18.0404 17.8596 17.3592 18.5393 16.574 19.1133C15.7889 19.6873 14.9247 20.1336 13.9813 20.4521C13.038 20.7706 12.0424 20.9297 10.9957 20.9293ZM7.77437 16.2552C7.90661 16.3759 8.07686 16.4365 8.28513 16.4368H13.7322C13.935 16.4368 14.1026 16.3763 14.2348 16.2552C14.3671 16.1341 14.4332 15.9724 14.4332 15.7699C14.4332 15.5728 14.3671 15.4137 14.2348 15.2926C14.1026 15.1715 13.935 15.111 13.7322 15.111H8.28513C8.07686 15.111 7.90661 15.1715 7.77437 15.2926C7.64213 15.4137 7.57601 15.5728 7.57601 15.7699C7.57601 15.9727 7.64213 16.1345 7.77437 16.2552ZM6.60422 12.822H15.4039C15.6068 12.822 15.7757 12.7601 15.9109 12.6361C16.046 12.5122 16.1136 12.3516 16.1136 12.1545C16.1136 11.9574 16.046 11.7983 15.9109 11.6773C15.7757 11.5562 15.6068 11.4957 15.4039 11.4957H6.60422C6.39595 11.4957 6.22569 11.5562 6.09346 11.6773C5.96122 11.7983 5.8951 11.9574 5.8951 12.1545C5.8951 12.3516 5.96122 12.5122 6.09346 12.6361C6.22569 12.7601 6.39595 12.822 6.60422 12.822ZM4.99951 9.2159H17.0086C17.2169 9.2159 17.3871 9.15536 17.5194 9.0343C17.6516 8.91323 17.7177 8.75414 17.7177 8.55705C17.7177 8.35995 17.6516 8.19942 17.5194 8.07547C17.3871 7.95152 17.2169 7.88954 17.0086 7.88954H4.99951C4.79124 7.88954 4.62099 7.95152 4.48875 8.07547C4.35651 8.19942 4.29039 8.35995 4.29039 8.55705C4.29039 8.75414 4.35651 8.91323 4.48875 9.0343C4.62099 9.15536 4.79124 9.2159 4.99951 9.2159Z" fill="black"/>
</g>
</g>
<defs>
<clipPath id="clip0_11_841">
<rect width="22" height="22" fill="white" transform="translate(0 0.5)"/>
</clipPath>
</defs>
</svg>
