<svg width="16" height="17" viewBox="0 0 16 17" fill="none" xmlns="http://www.w3.org/2000/svg">
<path fill-rule="evenodd" clip-rule="evenodd" d="M11.4797 8C11.3361 5.67694 10.5188 3.45096 9.13564 1.59165C12.3009 2.10802 14.7529 4.74721 14.9824 8H11.4797ZM10.4776 8C10.3233 5.71301 9.45651 3.53162 8 1.7628C6.54349 3.53162 5.6767 5.71301 5.52241 8H10.4776ZM5.52241 9H10.4776C10.3233 11.287 9.4565 13.4684 8 15.2372C6.54349 13.4684 5.6767 11.287 5.52241 9ZM4.52033 8C4.66391 5.67694 5.4812 3.45096 6.86436 1.59165C3.69915 2.10802 1.24715 4.74721 1.01758 8H4.52033ZM1.01758 9H4.52033C4.66391 11.3231 5.4812 13.549 6.86436 15.4083C3.69915 14.892 1.24715 12.2528 1.01758 9ZM0 8.5C0 4.08172 3.58172 0.5 8 0.5C12.4183 0.5 16 4.08172 16 8.5C16 12.9183 12.4183 16.5 8 16.5C3.58172 16.5 0 12.9183 0 8.5ZM14.9824 9C14.7529 12.2528 12.3009 14.892 9.13564 15.4083C10.5188 13.549 11.3361 11.3231 11.4797 9H14.9824Z" fill="#333333"/>
</svg>
